<?xml version="1.0" standalone="no"?>
<!DOCTYPE svg PUBLIC "-//W3C//DTD SVG 20010904//EN"
 "http://www.w3.org/TR/2001/REC-SVG-20010904/DTD/svg10.dtd">
<svg version="1.0" xmlns="http://www.w3.org/2000/svg"
 width="225.000000pt" height="225.000000pt" viewBox="0 0 225.000000 225.000000"
 preserveAspectRatio="xMidYMid meet">
<metadata>
Created by potrace 1.14, written by Peter Selinger 2001-2017
</metadata>
<g transform="translate(0.000000,225.000000) scale(0.100000,-0.100000)"
fill="#000000" stroke="none">
<path d="M1010 2245 c-8 -2 -49 -9 -90 -15 -209 -34 -432 -151 -590 -310 -155
-154 -264 -359 -312 -585 -16 -78 -16 -342 0 -420 99 -463 434 -798 897 -897
78 -16 342 -16 420 0 463 99 798 434 897 897 16 78 16 342 0 420 -97 455 -430
794 -876 891 -65 14 -310 28 -346 19z m359 -171 c283 -71 524 -273 648 -541
61 -133 85 -247 85 -408 0 -118 -4 -155 -25 -236 -93 -357 -358 -622 -713
-715 -84 -22 -120 -26 -239 -26 -119 0 -155 4 -239 26 -355 93 -620 358 -713
715 -21 81 -25 118 -25 236 0 161 24 275 85 408 143 308 439 525 776 567 98
12 253 1 360 -26z"/>
<path d="M660 1610 l0 -70 200 0 c110 0 200 -3 200 -6 0 -3 -39 -49 -86 -100
l-87 -95 43 -37 c24 -20 49 -40 55 -44 8 -5 59 43 143 135 l131 142 1 73 0 72
-300 0 -300 0 0 -70z"/>
<path d="M1161 1236 l-64 -64 23 -33 c34 -47 39 -125 10 -183 -25 -54 -60 -81
-123 -97 -88 -24 -181 29 -214 122 l-18 49 -68 0 -68 0 6 -37 c10 -60 62 -158
102 -194 126 -110 311 -112 432 -3 28 25 62 69 77 99 30 63 42 160 26 217
l-10 38 251 2 252 3 0 70 0 70 -275 3 -275 2 -64 -64z"/>
<path d="M1330 758 l-233 -282 47 -43 c27 -24 52 -41 56 -38 9 5 511 613 524
633 5 9 -12 12 -77 12 l-84 0 -233 -282z"/>
</g>
</svg>
